<svg width="74" height="70" viewBox="0 0 74 70" fill="none" xmlns="http://www.w3.org/2000/svg">
<path d="M70.5312 0.3125H3.46875C1.55315 0.3125 0 1.86565 0 3.78125V50.0312C0 51.9469 1.55315 53.5 3.46875 53.5H27.75V59.2812C27.75 61.1969 26.1969 62.75 24.2812 62.75H18.5V69.6875H55.5V62.75H49.7188C47.8031 62.75 46.25 61.1969 46.25 59.2812V53.5H70.5312C72.4469 53.5 74 51.9469 74 50.0312V3.78125C74 1.86565 72.4469 0.3125 70.5312 0.3125ZM53.1875 65.0625V67.375H20.8125V65.0625H53.1875ZM37 60.4861C38.9156 60.4861 40.4688 58.9329 40.4688 57.0173V53.5H43.9375V59.2812C43.942 60.5363 44.3587 61.7552 45.1237 62.75H28.8763C29.6413 61.7552 30.058 60.5363 30.0625 59.2812V53.5H33.5312V57.0173C33.5312 58.9329 35.0844 60.4861 37 60.4861ZM35.8438 57.0173V53.5H38.1562V57.0173C38.1562 57.6558 37.6385 58.1736 37 58.1736C36.3615 58.1736 35.8438 57.6558 35.8438 57.0173ZM71.6875 50.0312C71.6875 50.6698 71.1698 51.1875 70.5312 51.1875H3.46875C2.83022 51.1875 2.3125 50.6698 2.3125 50.0312V39.625H25.669C26.6265 44.3319 30.3956 47.9553 35.1369 48.726C39.8776 49.4972 44.6009 47.2547 47.0003 43.0938H52.4349C54.3725 46.4626 57.8774 48.6288 61.7572 48.8558C65.6369 49.0828 69.3699 47.3399 71.6875 44.2201V50.0312ZM62.4375 46.5625C58.923 46.571 55.7112 44.5758 54.1608 41.422L53.8407 40.7812H45.5968L45.2767 41.422C43.2487 45.5107 38.5419 47.5099 34.1918 46.1295C29.8412 44.7485 27.1482 40.4019 27.8494 35.8915C28.55 31.3816 32.436 28.0574 37 28.0625H62.4375C67.5463 28.0625 71.6875 32.2037 71.6875 37.3125C71.6875 42.4213 67.5463 46.5625 62.4375 46.5625ZM71.6875 30.4049C69.5128 27.4793 66.083 25.7534 62.4375 25.75H37C30.6169 25.7568 25.4443 30.9294 25.4375 37.3125H2.3125V3.78125C2.3125 3.14272 2.83022 2.625 3.46875 2.625H70.5312C71.1698 2.625 71.6875 3.14272 71.6875 3.78125V30.4049Z" fill="#FFB400"/>
</svg>
